<svg width="44" height="44" viewBox="0 0 44 44" fill="none" xmlns="http://www.w3.org/2000/svg">
<path fill-rule="evenodd" clip-rule="evenodd" d="M30.2758 39.4169H14.9715C9.34981 39.4169 5.03708 37.3863 6.26209 29.214L7.68849 18.1384C8.44364 14.0606 11.0447 12.5 13.3269 12.5H31.9875C34.3033 12.5 36.7533 14.1781 37.6259 18.1384L39.0523 29.214C40.0928 36.4634 35.8975 39.4169 30.2758 39.4169Z" stroke="#111827" stroke-width="1.5" stroke-linecap="round" stroke-linejoin="round"/>
<path d="M30.5272 12.0965C30.5272 7.72206 26.981 4.17585 22.6066 4.17585V4.17585C20.5001 4.16693 18.4768 4.99748 16.9841 6.48386C15.4914 7.97025 14.6523 9.99 14.6523 12.0965H14.6523" stroke="#111827" stroke-width="1.5" stroke-linecap="round" stroke-linejoin="round"/>
<path d="M28.0431 20.3527H27.9592" stroke="#111827" stroke-width="1.5" stroke-linecap="round" stroke-linejoin="round"/>
<path d="M17.3537 20.3527H17.2698" stroke="#111827" stroke-width="1.5" stroke-linecap="round" stroke-linejoin="round"/>
</svg>
