<svg width="48" height="48" viewBox="0 0 48 48" fill="none" xmlns="http://www.w3.org/2000/svg">
<path d="M0 24C0 10.7452 10.7452 0 24 0C37.2548 0 48 10.7452 48 24C48 37.2548 37.2548 48 24 48C10.7452 48 0 37.2548 0 24Z" fill="#111827"/>
<path d="M14.5 18.9386L14.1541 18.2732C13.9058 18.4022 13.75 18.6588 13.75 18.9386H14.5ZM24 14L24.3459 13.3345C24.1291 13.2218 23.8709 13.2218 23.6541 13.3345L24 14ZM33.5 18.9386H34.25C34.25 18.6588 34.0942 18.4022 33.8459 18.2732L33.5 18.9386ZM14.5 28.2671H13.75C13.75 28.5516 13.9109 28.8116 14.1656 28.9385L14.5 28.2671ZM24 33L23.6656 33.6713C23.8762 33.7762 24.1238 33.7762 24.3344 33.6713L24 33ZM33.5 28.2671L33.8344 28.9385C34.0891 28.8116 34.25 28.5516 34.25 28.2671H33.5ZM29.9375 17.0866L30.2834 16.4212L29.9375 17.0866ZM18.0625 23.8773H17.3125V25.05L18.3771 24.5581L18.0625 23.8773ZM20.4375 24.5L19.9108 25.0339L21.1875 26.2934V24.5H20.4375ZM14.8459 19.6041L24.3459 14.6655L23.6541 13.3345L14.1541 18.2732L14.8459 19.6041ZM33.1854 18.2578L23.6854 22.6477L24.3146 24.0093L33.8146 19.6195L33.1854 18.2578ZM13.75 18.9386V28.2671H15.25V18.9386H13.75ZM14.1656 28.9385L23.6656 33.6713L24.3344 32.3287L14.8344 27.5958L14.1656 28.9385ZM24.75 33V23.3285H23.25V33H24.75ZM24.3344 33.6713L33.8344 28.9385L33.1656 27.5958L23.6656 32.3287L24.3344 33.6713ZM34.25 28.2671V18.9386H32.75V28.2671H34.25ZM24.3146 22.6477L20.7521 21.0015L20.1229 22.3631L23.6854 24.0093L24.3146 22.6477ZM29.5916 17.7521L33.1541 19.6041L33.8459 18.2732L30.2834 16.4212L29.5916 17.7521ZM18.3771 19.904L14.8146 18.2578L14.1854 19.6195L17.7479 21.2657L18.3771 19.904ZM23.6541 14.6655L27.2166 16.5174L27.9084 15.1865L24.3459 13.3345L23.6541 14.6655ZM18.3969 21.2561L27.8969 16.5233L27.2281 15.1807L17.7281 19.9135L18.3969 21.2561ZM20.7641 22.3575L30.2641 17.7618L29.6109 16.4115L20.1109 21.0072L20.7641 22.3575ZM17.3125 20.5848V23.8773H18.8125V20.5848H17.3125ZM19.6875 21.6823V24.5H21.1875V21.6823H19.6875ZM17.7479 21.2657L18.9354 21.8144L19.5646 20.4527L18.3771 19.904L17.7479 21.2657ZM18.9354 21.8144L20.1229 22.3631L20.7521 21.0015L19.5646 20.4527L18.9354 21.8144ZM27.2166 16.5174L28.4041 17.1348L29.0959 15.8039L27.9084 15.1865L27.2166 16.5174ZM28.4041 17.1348L29.5916 17.7521L30.2834 16.4212L29.0959 15.8039L28.4041 17.1348ZM19.5805 21.8068L29.0805 17.1425L28.4195 15.7961L18.9195 20.4603L19.5805 21.8068ZM18.3771 24.5581L19.5646 24.0093L18.9354 22.6477L17.7479 23.1964L18.3771 24.5581ZM18.7233 23.8624L19.9108 25.0339L20.9642 23.9661L19.7767 22.7946L18.7233 23.8624ZM18.5 21.1336V23.3285H20V21.1336H18.5Z" fill="#FECACA"/>
</svg>
