<svg width="24" height="24" viewBox="0 0 24 24" fill="none" xmlns="http://www.w3.org/2000/svg">
<path d="M19.7644 4.23568C18.1169 2.58811 15.4457 2.58811 13.7982 4.23565L10.2722 7.76162C8.56799 9.4659 8.72577 12.1814 10.2722 13.7279C10.5312 13.9868 10.8177 14.198 11.1202 14.3714L11.7638 13.7279C12.1859 13.3057 12.0373 12.8122 12.0297 12.4561C11.9371 12.3905 11.847 12.3195 11.7638 12.2363C10.9702 11.4428 10.9345 10.0824 11.7638 9.25317C11.8869 9.13001 15.2149 5.802 15.2897 5.72726C16.1123 4.90464 17.4502 4.90464 18.2728 5.72726C19.0954 6.54989 19.0954 7.88776 18.2728 8.71039L15.9422 11.041C16.0096 11.4139 16.4141 12.2973 16.206 13.7544C16.2162 13.7444 16.2283 13.738 16.2384 13.7279L19.7644 10.2019C21.4119 8.55436 21.4119 5.88325 19.7644 4.23568Z" fill="#111827"/>
<path d="M14.0011 9.99895C13.7421 9.73998 13.4556 9.52883 13.1531 9.35541L12.5095 9.99895C12.0874 10.421 12.236 10.9145 12.2435 11.2706C12.3363 11.3363 12.4264 11.4073 12.5095 11.4905C13.3031 12.284 13.3388 13.6443 12.5095 14.4736C12.3861 14.597 8.78244 18.2007 8.71033 18.2728C7.88771 19.0954 6.54983 19.0954 5.7272 18.2728C4.90458 17.4502 4.90458 16.1123 5.7272 15.2897L8.33113 12.6857C8.26374 12.3128 7.85923 11.4295 8.06732 9.97233C8.05716 9.98232 8.04493 9.98882 8.0348 9.99891L4.23562 13.7982C2.58813 15.4457 2.58813 18.1168 4.23562 19.7644C5.88319 21.4119 8.55427 21.4119 10.2018 19.7644L14.0011 15.9652C15.6737 14.2926 15.5822 11.5801 14.0011 9.99895Z" fill="#111827"/>
</svg>
