<svg width="24" height="24" viewBox="0 0 24 24" fill="none" xmlns="http://www.w3.org/2000/svg">
<path d="M15.0375 12C15.0375 10.3125 13.6875 8.9625 12 8.9625C10.3125 8.9625 8.9625 10.3125 8.9625 12C8.9625 13.6875 10.3125 15.0375 12 15.0375C13.6875 15.0375 15.0375 13.6875 15.0375 12ZM16.6125 12C16.6125 14.5875 14.5875 16.6125 12 16.6125C9.4125 16.6125 7.3875 14.5875 7.3875 12C7.3875 9.4125 9.4125 7.3875 12 7.3875C14.5875 7.3875 16.6125 9.4125 16.6125 12ZM17.85 7.1625C17.85 7.8375 17.4 8.2875 16.725 8.2875C16.05 8.2875 15.6 7.8375 15.6 7.1625C15.6 6.4875 16.05 6.0375 16.725 6.0375C17.4 6.0375 17.85 6.6 17.85 7.1625ZM12 4.575C10.65 4.575 7.8375 4.4625 6.7125 4.9125C5.925 5.25 5.25 5.925 5.025 6.7125C4.575 7.8375 4.6875 10.65 4.6875 12C4.6875 13.35 4.575 16.1625 5.025 17.2875C5.25 18.075 5.925 18.75 6.7125 18.975C7.8375 19.425 10.7625 19.3125 12 19.3125C13.2375 19.3125 16.1625 19.425 17.2875 18.975C18.075 18.6375 18.6375 18.075 18.975 17.2875C19.425 16.05 19.3125 13.2375 19.3125 12C19.3125 10.7625 19.425 7.8375 18.975 6.7125C18.75 5.925 18.075 5.25 17.2875 5.025C16.1625 4.4625 13.35 4.575 12 4.575ZM21 12V15.7125C21 17.0625 20.55 18.4125 19.5375 19.5375C18.525 20.55 17.175 21 15.7125 21H8.2875C6.9375 21 5.5875 20.55 4.4625 19.5375C3.5625 18.525 3 17.175 3 15.7125V12V8.2875C3 6.825 3.5625 5.475 4.4625 4.4625C5.5875 3.5625 6.9375 3 8.2875 3H15.7125C17.0625 3 18.4125 3.45 19.5375 4.4625C20.4375 5.475 21 6.825 21 8.2875V12Z" fill="#111827"/>
</svg>
