<svg width="24" height="24" viewBox="0 0 24 24" fill="none" xmlns="http://www.w3.org/2000/svg">
<mask id="mask0" mask-type="alpha" maskUnits="userSpaceOnUse" x="0" y="0" width="24" height="24">
<rect width="24" height="24" fill="white"/>
</mask>
<g mask="url(#mask0)">
<path d="M10.1477 19.6161L9.71858 20.17L10.1477 19.6161C9.82632 19.3671 9.42827 19.2378 9.02191 19.2503L6.87342 19.3166C6.75946 19.3201 6.65755 19.2461 6.62568 19.1366L6.02482 17.0728C5.91117 16.6825 5.66517 16.3439 5.32904 16.1152L3.55191 14.9059C3.45764 14.8418 3.41871 14.722 3.45728 14.6147L4.18426 12.5919C4.32176 12.2093 4.32176 11.7907 4.18426 11.4081L3.45727 9.38529C3.41871 9.27799 3.45764 9.1582 3.55191 9.09405L5.32904 7.88485C5.66517 7.65614 5.91117 7.31754 6.02482 6.92719L6.62568 4.86337C6.65755 4.7539 6.75945 4.67986 6.87342 4.68337L9.02191 4.74968C9.42827 4.76222 9.82632 4.63289 10.1477 4.38389L11.8469 3.0674C11.937 2.99756 12.063 2.99756 12.1531 3.0674L13.8523 4.38389L14.3116 3.79102L13.8523 4.38389C14.1737 4.63289 14.5717 4.76222 14.9781 4.74968L17.1266 4.68337C17.2405 4.67986 17.3425 4.7539 17.3743 4.86337L17.9752 6.92719C18.0888 7.31754 18.3348 7.65614 18.671 7.88485L20.4481 9.09405C20.5424 9.15819 20.5813 9.27799 20.5427 9.3853L19.8157 11.4081C19.6782 11.7907 19.6782 12.2093 19.8157 12.5919L20.5427 14.6147C20.5813 14.722 20.5424 14.8418 20.4481 14.9059L18.671 16.1152C18.3348 16.3439 18.0888 16.6825 17.9752 17.0728L17.3743 19.1366C17.3425 19.2461 17.2405 19.3201 17.1266 19.3166L14.9781 19.2503C14.5717 19.2378 14.1737 19.3671 13.8523 19.6161L14.3116 20.209L13.8523 19.6161L12.1531 20.9326C12.063 21.0024 11.937 21.0024 11.8469 20.9326L10.1477 19.6161Z" stroke="#111827" stroke-width="1.5"/>
<circle cx="9.27277" cy="9.27274" r="1.21818" stroke="#111827" stroke-width="1.2"/>
<circle cx="14.7274" cy="14.7272" r="1.21818" stroke="#111827" stroke-width="1.2"/>
<path d="M8.36353 15.6363L15.6363 8.36362" stroke="#111827" stroke-width="1.5" stroke-linecap="round"/>
</g>
</svg>
