<svg width="35" height="24" viewBox="0 0 35 24" fill="none" xmlns="http://www.w3.org/2000/svg">
<rect x="0.5" y="0.5" width="34" height="23" rx="3.5" fill="#1F72CD" stroke="#D9D9D9"/>
<path fill-rule="evenodd" clip-rule="evenodd" d="M6.27467 8.5L3 15.7467H6.92024L7.40624 14.5913H8.51712L9.00311 15.7467H13.3182V14.8649L13.7027 15.7467H15.9348L16.3193 14.8462V15.7467H25.2935L26.3847 14.6213L27.4065 15.7467L32.0158 15.7561L28.7308 12.1436L32.0158 8.5H27.478L26.4158 9.60463L25.4261 8.5H15.6634L14.8251 10.3704L13.9671 8.5H10.055V9.35186L9.61981 8.5H6.27467ZM7.03319 9.52905H8.9441L11.1162 14.4431V9.52905H13.2095L14.8872 13.0524L16.4334 9.52905H18.5163V14.7291H17.2489L17.2385 10.6544L15.3908 14.7291H14.2571L12.399 10.6544V14.7291H9.79175L9.29746 13.5633H6.62698L6.13371 14.728H4.73676L7.03319 9.52905ZM24.8293 9.52905H19.6758V14.726H24.7495L26.3848 13.0036L27.9609 14.726H29.6086L27.2138 12.1426L29.6086 9.52905H28.0324L26.4054 11.2316L24.8293 9.52905ZM7.96279 10.4088L7.08298 12.4855H8.84159L7.96279 10.4088ZM20.9485 11.555V10.6058V10.6049H24.164L25.5671 12.123L24.1019 13.6494H20.9485V12.6131H23.7599V11.555H20.9485Z" fill="white"/>
</svg>
