<svg width="35" height="24" viewBox="0 0 35 24" fill="none" xmlns="http://www.w3.org/2000/svg">
<rect x="0.5" y="0.5" width="34" height="23" rx="3.5" fill="white" stroke="#D9D9D9"/>
<path fill-rule="evenodd" clip-rule="evenodd" d="M9.58012 8.84316C9.28634 9.19506 8.8163 9.47261 8.34626 9.43296C8.28751 8.95715 8.51763 8.45161 8.78692 8.13936C9.0807 7.77755 9.59481 7.51983 10.011 7.5C10.06 7.99563 9.869 8.48135 9.58012 8.84316ZM10.006 9.52701C9.5919 9.50289 9.21406 9.65308 8.90886 9.77439C8.71246 9.85245 8.54614 9.91856 8.41961 9.91856C8.27762 9.91856 8.10444 9.84892 7.90999 9.77072C7.65521 9.66827 7.36392 9.55113 7.05845 9.55675C6.35829 9.56666 5.70709 9.96812 5.34966 10.6075C4.61522 11.8862 5.1587 13.7795 5.86866 14.8203C6.2163 15.3358 6.63248 15.9008 7.18086 15.881C7.42211 15.8718 7.59566 15.7972 7.77526 15.7201C7.98203 15.6313 8.19683 15.539 8.53223 15.539C8.85599 15.539 9.0614 15.6289 9.25858 15.7151C9.44606 15.7971 9.62611 15.8759 9.89339 15.8711C10.4614 15.8612 10.8188 15.3556 11.1664 14.8402C11.5416 14.2869 11.7064 13.747 11.7314 13.6651L11.7344 13.6556C11.7338 13.655 11.7291 13.6529 11.721 13.6491C11.5956 13.5909 10.637 13.1467 10.6278 11.9556C10.6186 10.9558 11.3881 10.4492 11.5093 10.3695C11.5166 10.3646 11.5216 10.3614 11.5238 10.3597C11.0342 9.62614 10.2704 9.54684 10.006 9.52701ZM13.9377 15.8166V8.08975H16.8021C18.2807 8.08975 19.3138 9.12066 19.3138 10.6274C19.3138 12.1341 18.2611 13.1749 16.7629 13.1749H15.1226V15.8166H13.9377ZM15.1225 9.10093H16.4886C17.5168 9.10093 18.1043 9.65604 18.1043 10.6324C18.1043 11.6088 17.5168 12.1689 16.4837 12.1689H15.1225V9.10093ZM23.226 14.8899C22.9126 15.4945 22.2223 15.8762 21.478 15.8762C20.3764 15.8762 19.6077 15.212 19.6077 14.2109C19.6077 13.2196 20.3519 12.6496 21.7277 12.5654L23.2064 12.4762V12.0499C23.2064 11.4205 22.8 11.0785 22.0754 11.0785C21.478 11.0785 21.0423 11.3907 20.9541 11.8665H19.8867C19.921 10.8654 20.8513 10.1368 22.1096 10.1368C23.4659 10.1368 24.3472 10.8554 24.3472 11.9706V15.8167H23.2505V14.8899H23.226ZM21.7963 14.9593C21.1646 14.9593 20.7631 14.652 20.7631 14.1812C20.7631 13.6954 21.15 13.4129 21.8893 13.3683L23.2064 13.2841V13.7202C23.2064 14.4438 22.5992 14.9593 21.7963 14.9593ZM27.9851 16.1189C27.5101 17.472 26.9666 17.9181 25.8111 17.9181C25.723 17.9181 25.4292 17.9082 25.3607 17.8883V16.9615C25.4341 16.9714 25.6153 16.9813 25.7083 16.9813C26.2322 16.9813 26.526 16.7583 26.7071 16.1784L26.8149 15.8364L24.8074 10.211H26.0461L27.4416 14.7758H27.4661L28.8615 10.211H30.066L27.9851 16.1189Z" fill="black"/>
</svg>
