<svg width="35" height="24" viewBox="0 0 35 24" fill="none" xmlns="http://www.w3.org/2000/svg">
<rect x="0.5" y="0.5" width="34" height="23" rx="3.5" fill="white" stroke="#D9D9D9"/>
<path d="M19.545 19.3905C23.4425 19.4093 27 16.1827 27 12.2575C27 7.96549 23.4425 4.9984 19.545 5H16.1906C12.2467 4.9984 9 7.96629 9 12.2575C9 16.1835 12.2467 19.4093 16.1906 19.3905H19.545Z" fill="#0079BE"/>
<path d="M16.2067 5.5957C12.6023 5.5969 9.68211 8.54477 9.68091 12.1831C9.68211 15.8211 12.6023 18.769 16.2067 18.7702C19.8114 18.769 22.7328 15.8211 22.7332 12.1831C22.7328 8.54477 19.8118 5.5969 16.2067 5.5957ZM12.0704 12.1831C12.0697 11.3419 12.3227 10.52 12.7965 9.8249C13.2702 9.12977 13.9427 8.59373 14.7259 8.28683V16.079C13.9426 15.7724 13.2701 15.2364 12.7963 14.5413C12.3225 13.8462 12.0695 13.0243 12.0704 12.1831ZM17.687 16.0806V8.28643C18.4708 8.59289 19.1439 9.12889 19.618 9.82425C20.0921 10.5196 20.3452 11.3419 20.3441 12.1835C20.345 13.0251 20.0918 13.8474 19.6178 14.5427C19.1437 15.238 18.4707 15.7741 17.687 16.0806Z" fill="white"/>
<path d="M19.545 19.3905C23.4425 19.4093 27 16.1827 27 12.2575C27 7.96549 23.4425 4.9984 19.545 5H16.1906C12.2467 4.9984 9 7.96629 9 12.2575C9 16.1835 12.2467 19.4093 16.1906 19.3905H19.545Z" fill="#0079BE"/>
<path d="M16.2067 5.5957C12.6023 5.5969 9.68211 8.54477 9.68091 12.1831C9.68211 15.8211 12.6023 18.769 16.2067 18.7702C19.8114 18.769 22.7328 15.8211 22.7332 12.1831C22.7328 8.54477 19.8118 5.5969 16.2067 5.5957ZM12.0704 12.1831C12.0697 11.3419 12.3227 10.52 12.7965 9.8249C13.2702 9.12977 13.9427 8.59373 14.7259 8.28683V16.079C13.9426 15.7724 13.2701 15.2364 12.7963 14.5413C12.3225 13.8462 12.0695 13.0243 12.0704 12.1831ZM17.687 16.0806V8.28643C18.4708 8.59289 19.1439 9.12889 19.618 9.82425C20.0921 10.5196 20.3452 11.3419 20.3441 12.1835C20.345 13.0251 20.0918 13.8474 19.6178 14.5427C19.1437 15.238 18.4707 15.7741 17.687 16.0806Z" fill="white"/>
</svg>
