<svg width="35" height="24" viewBox="0 0 35 24" fill="none" xmlns="http://www.w3.org/2000/svg">
<rect x="0.5" y="0.5" width="34" height="23" rx="3.5" fill="white" stroke="#D9D9D9"/>
<path d="M14.75 23.5L34.5 17.75V18.5C34.5 21.2614 32.2614 23.5 29.5 23.5H14.75Z" fill="#FD6020"/>
<path fill-rule="evenodd" clip-rule="evenodd" d="M30.4355 9.11087C31.5221 9.11087 32.1197 9.59441 32.1197 10.5078C32.174 11.2062 31.685 11.7972 31.0331 11.9047L32.5 13.8926H31.3591L30.1095 11.9584H30.0009V13.8926H29.0773V9.11087H30.4355ZM30.0009 11.3136H30.2725C30.8701 11.3136 31.1417 11.045 31.1417 10.5615C31.1417 10.1316 30.8701 9.86301 30.2725 9.86301H30.0009V11.3136ZM25.8721 13.8926H28.4798V13.0866H26.7956V11.7972H28.4255V10.9913H26.7956V9.91676H28.4798V9.11086H25.8721V13.8926ZM23.1556 12.3345L21.906 9.11086H20.9281L22.9383 14H23.4272L25.4373 9.11086H24.4594L23.1556 12.3345ZM12.1271 11.5286C12.1271 12.8717 13.2136 14 14.5718 14C15.0064 14 15.3867 13.8925 15.767 13.7314V12.6568C15.4954 12.9792 15.1151 13.1941 14.6805 13.1941C13.8112 13.1941 13.105 12.5494 13.105 11.6897V11.5823C13.0506 10.7227 13.7569 9.97048 14.6261 9.91675C15.0608 9.91675 15.4954 10.1317 15.767 10.454V9.37948C15.4411 9.16457 15.0064 9.11085 14.6261 9.11085C13.2136 9.00339 12.1271 10.1317 12.1271 11.5286ZM10.4428 10.9376C9.89957 10.7227 9.73659 10.6152 9.73659 10.3466C9.79092 10.0242 10.0626 9.75557 10.3885 9.8093C10.6602 9.8093 10.9318 9.97048 11.1491 10.1854L11.6381 9.54066C11.2578 9.2183 10.7688 9.00339 10.2799 9.00339C9.51928 8.94967 8.86734 9.54066 8.81301 10.2928V10.3466C8.81301 10.9913 9.08465 11.3674 9.9539 11.636C10.1712 11.6897 10.3885 11.7972 10.6058 11.9046C10.7688 12.0121 10.8775 12.1733 10.8775 12.3882C10.8775 12.7643 10.5515 13.0866 10.2255 13.0866H10.1712C9.73659 13.0866 9.35629 12.818 9.19331 12.4419L8.5957 13.0329C8.92167 13.6239 9.5736 13.9463 10.2255 13.9463C11.0948 14 11.801 13.3553 11.8554 12.4956V12.3345C11.801 11.6897 11.5294 11.3674 10.4428 10.9376ZM7.29192 13.8926H8.2155V9.11086H7.29192V13.8926ZM3 9.11087H4.3582H4.62983C5.9337 9.1646 6.96593 10.2391 6.9116 11.5286C6.9116 12.227 6.58564 12.8718 6.04236 13.3553C5.55341 13.7314 4.9558 13.9463 4.3582 13.8926H3V9.11087ZM4.19519 13.0866C4.62981 13.1403 5.11877 12.9792 5.44473 12.7105C5.7707 12.3882 5.93368 11.9584 5.93368 11.4748C5.93368 11.045 5.7707 10.6152 5.44473 10.2928C5.11877 10.0242 4.62981 9.863 4.19519 9.91673H3.92355V13.0866H4.19519Z" fill="black"/>
<path fill-rule="evenodd" clip-rule="evenodd" d="M18.5377 9C17.1795 9 16.0386 10.0745 16.0386 11.4714C16.0386 12.8146 17.1251 13.9429 18.5377 13.9966C19.9502 14.0503 21.0367 12.9221 21.0911 11.5252C21.0367 10.1283 19.9502 9 18.5377 9V9Z" fill="#FD6020"/>
</svg>
