<svg width="35" height="24" viewBox="0 0 35 24" fill="none" xmlns="http://www.w3.org/2000/svg">
<rect x="0.5" y="0.5" width="34" height="23" rx="3.5" fill="white" stroke="#D9D9D9"/>
<path d="M7.99912 9.22531C8.29998 9.12667 8.62183 9.07312 8.95671 9.07312C10.4182 9.07312 11.6373 10.0915 11.917 11.4444L13.9881 11.0302C13.5129 8.73084 11.4411 7 8.95671 7C8.38792 7 7.84043 7.0909 7.32935 7.25834L7.99912 9.22531Z" fill="#FECA2F"/>
<path d="M5.53441 15.8891L6.77447 14.2879C6.22095 13.7281 5.87158 12.9107 5.87158 11.9996C5.87158 11.0891 6.22062 10.2718 6.77399 9.71231L5.53327 8.11133C4.59271 9.06254 4 10.452 4 11.9996C4 13.5479 4.59358 14.9379 5.53441 15.8891Z" fill="#1BA7DE"/>
<path d="M11.9177 12.5547C11.637 13.9074 10.4187 14.9245 8.95846 14.9245C8.62344 14.9245 8.30095 14.8708 8.00007 14.7719L7.32935 16.7398C7.84122 16.9081 8.38889 16.9991 8.95846 16.9991C11.4405 16.9991 13.511 15.2695 13.9881 12.971L11.9177 12.5547Z" fill="#EC412A"/>
<path fill-rule="evenodd" clip-rule="evenodd" d="M23.9527 8.11133V13.8016L24.9739 14.2109L24.4908 15.3332L23.481 14.9273C23.2539 14.8321 23.1003 14.687 22.9835 14.5232C22.8714 14.3556 22.7883 14.1264 22.7883 13.8173V8.11133H23.9527ZM16.2081 12.3404C16.2335 10.7132 17.6193 9.41423 19.3008 9.43916C20.7281 9.46081 21.9106 10.4275 22.2212 11.7132L16.7012 13.9946C16.3806 13.5205 16.1983 12.9503 16.2081 12.3404ZM17.4712 12.5687C17.4636 12.5004 17.4582 12.4304 17.4603 12.3598C17.4761 11.401 18.292 10.636 19.2827 10.6519C19.8219 10.6589 20.3008 10.8977 20.6245 11.2673L17.4712 12.5687ZM20.5082 13.6252C20.1756 13.9381 19.7244 14.1288 19.2263 14.1219C18.8849 14.1164 18.5685 14.0176 18.2995 13.8529L17.6327 14.8803C18.0894 15.1595 18.6278 15.3246 19.2084 15.3333C20.0534 15.3454 20.8236 15.0245 21.3836 14.4944L20.5082 13.6252ZM28.2026 10.6518C28.0037 10.6518 27.8126 10.6829 27.634 10.7409L27.2366 9.58956C27.5399 9.49164 27.8647 9.43845 28.2026 9.43845C29.6775 9.43845 30.9078 10.4515 31.1899 11.7973L29.96 12.0397C29.7942 11.2477 29.0704 10.6518 28.2026 10.6518ZM26.1831 14.5937L27.0142 13.6849C26.643 13.3672 26.4093 12.9031 26.4093 12.3858C26.4093 11.869 26.643 11.4051 27.0138 11.0876L26.1822 10.1788C25.5516 10.7187 25.1543 11.5077 25.1543 12.3858C25.1543 13.2649 25.5519 14.0536 26.1831 14.5937ZM28.2026 14.1202C29.0696 14.1202 29.7933 13.5248 29.96 12.7339L31.1896 12.9775C30.9061 14.3218 29.6761 15.3334 28.2026 15.3334C27.8644 15.3334 27.5392 15.2801 27.2351 15.1817L27.6334 14.0308C27.8123 14.0886 28.0036 14.1202 28.2026 14.1202Z" fill="black"/>
</svg>
