<svg width="35" height="24" viewBox="0 0 35 24" fill="none" xmlns="http://www.w3.org/2000/svg">
<rect x="0.5" y="0.5" width="34" height="23" rx="3.5" fill="white" stroke="#D9D9D9"/>
<path fill-rule="evenodd" clip-rule="evenodd" d="M16.5301 15.7565V12.7355H18.0893C18.7282 12.7355 19.2675 12.5215 19.7071 12.0992L19.8126 11.9922C20.6156 11.118 20.5629 9.75622 19.7071 8.94746C19.2792 8.51929 18.6931 8.28737 18.0893 8.29926H15.5864V15.7565H16.5301ZM16.5302 11.8197V9.21502H18.1131C18.4531 9.21502 18.7756 9.34585 19.0159 9.58372C19.526 10.0832 19.5377 10.9158 19.0452 11.4332C18.8049 11.6889 18.4648 11.8316 18.1131 11.8197H16.5302ZM24.2146 11.0525C23.8102 10.6779 23.2592 10.4876 22.5617 10.4876C21.6649 10.4876 20.9908 10.8206 20.5453 11.4807L21.3776 12.0099C21.6825 11.558 22.0986 11.332 22.6262 11.332C22.9603 11.332 23.2827 11.4569 23.5347 11.6829C23.7809 11.8969 23.9216 12.2062 23.9216 12.5332V12.7533C23.5582 12.5511 23.1009 12.444 22.5382 12.444C21.8817 12.444 21.3542 12.5987 20.9615 12.9138C20.5688 13.229 20.3695 13.6453 20.3695 14.1746C20.3577 14.6562 20.5629 15.1141 20.9263 15.4234C21.2956 15.7564 21.7645 15.9229 22.3155 15.9229C22.9661 15.9229 23.4819 15.6315 23.8747 15.0487H23.9157V15.7564H24.8184V12.6106C24.8184 11.9505 24.6191 11.4272 24.2146 11.0525ZM21.6533 14.8169C21.4598 14.6742 21.3426 14.4423 21.3426 14.1925C21.3426 13.913 21.4715 13.6811 21.7236 13.4967C21.9816 13.3124 22.304 13.2172 22.6851 13.2172C23.2127 13.2113 23.6231 13.3302 23.9162 13.5681C23.9162 13.9725 23.7579 14.3233 23.4472 14.6207C23.1658 14.9061 22.7847 15.0667 22.3861 15.0667C22.1223 15.0726 21.8643 14.9834 21.6533 14.8169ZM26.8465 17.9983L30 10.6541H28.9743L27.5147 14.3173H27.4972L26.0025 10.6541H24.9767L27.0458 15.4293L25.8735 17.9983H26.8465Z" fill="#3C4043"/>
<path d="M13.272 12.0831C13.272 11.7917 13.2486 11.5003 13.2017 11.2148H9.22168V12.8621H11.5018C11.408 13.3914 11.1032 13.8671 10.6578 14.1644V15.2349H12.0176C12.8148 14.4915 13.272 13.3914 13.272 12.0831Z" fill="#4285F4"/>
<path d="M9.22186 16.2696C10.359 16.2696 11.3203 15.889 12.0178 15.2349L10.6579 14.1645C10.2769 14.4261 9.79043 14.5748 9.22186 14.5748C8.11989 14.5748 7.1879 13.8195 6.85379 12.8086H5.45288V13.9147C6.16799 15.3598 7.62752 16.2696 9.22186 16.2696Z" fill="#34A853"/>
<path d="M6.85401 12.8079C6.67814 12.2786 6.67814 11.7018 6.85401 11.1666V10.0664H5.45288C4.84904 11.2736 4.84904 12.7008 5.45288 13.908L6.85401 12.8079Z" fill="#FBBC04"/>
<path d="M9.22186 9.40016C9.8256 9.38827 10.4059 9.62019 10.8397 10.0424L12.0471 8.81738C11.2793 8.09188 10.2711 7.69344 9.22186 7.70534C7.62752 7.70534 6.16799 8.62114 5.45288 10.0662L6.85379 11.1723C7.1879 10.1554 8.11989 9.40016 9.22186 9.40016Z" fill="#EA4335"/>
</svg>
