<svg width="35" height="24" viewBox="0 0 35 24" fill="none" xmlns="http://www.w3.org/2000/svg">
<rect x="0.5" y="0.5" width="34" height="23" rx="3.5" fill="white" stroke="#D9D9D9"/>
<path fill-rule="evenodd" clip-rule="evenodd" d="M17.6973 17.3815C16.5057 18.4098 14.96 19.0306 13.271 19.0306C9.50237 19.0306 6.44727 15.94 6.44727 12.1276C6.44727 8.31518 9.50237 5.22461 13.271 5.22461C14.96 5.22461 16.5057 5.84537 17.6973 6.87366C18.8889 5.84537 20.4345 5.22461 22.1235 5.22461C25.8922 5.22461 28.9473 8.31518 28.9473 12.1276C28.9473 15.94 25.8922 19.0306 22.1235 19.0306C20.4345 19.0306 18.8889 18.4098 17.6973 17.3815Z" fill="#ED0006"/>
<path fill-rule="evenodd" clip-rule="evenodd" d="M17.6973 17.3815C19.1645 16.1154 20.0948 14.2314 20.0948 12.1276C20.0948 10.0238 19.1645 8.13979 17.6973 6.87366C18.8888 5.84537 20.4345 5.22461 22.1235 5.22461C25.8922 5.22461 28.9473 8.31518 28.9473 12.1276C28.9473 15.94 25.8922 19.0306 22.1235 19.0306C20.4345 19.0306 18.8888 18.4098 17.6973 17.3815Z" fill="#F9A000"/>
<path fill-rule="evenodd" clip-rule="evenodd" d="M17.6973 6.87305C19.1645 8.13918 20.0949 10.0232 20.0949 12.127C20.0949 14.2308 19.1645 16.1148 17.6973 17.3809C16.2301 16.1148 15.2998 14.2308 15.2998 12.127C15.2998 10.0232 16.2301 8.13918 17.6973 6.87305Z" fill="#FF5E00"/>
</svg>
