<svg width="35" height="24" viewBox="0 0 35 24" fill="none" xmlns="http://www.w3.org/2000/svg">
<rect x="0.5" y="0.5" width="34" height="23" rx="3.5" fill="white" stroke="#D9D9D9"/>
<path fill-rule="evenodd" clip-rule="evenodd" d="M15.0438 18.4493L15.2711 17.0002L14.7649 16.9883H12.3479L14.0276 6.29467C14.0329 6.26229 14.0498 6.23223 14.0745 6.21085C14.0993 6.18947 14.131 6.17773 14.1641 6.17773H18.2395C19.5926 6.17773 20.5262 6.46037 21.0137 7.01831C21.2422 7.28005 21.3878 7.55365 21.4582 7.85461C21.5321 8.17049 21.5333 8.54782 21.4613 9.00813L21.456 9.04161V9.33659L21.6846 9.4666C21.877 9.56913 22.03 9.68643 22.1473 9.82072C22.3428 10.0446 22.4692 10.3291 22.5226 10.6662C22.5779 11.013 22.5596 11.4258 22.4692 11.893C22.3649 12.4304 22.1964 12.8986 21.9687 13.2815C21.7593 13.6344 21.4926 13.9272 21.1758 14.154C20.8733 14.3695 20.5141 14.5332 20.1078 14.6379C19.7141 14.7408 19.2653 14.7927 18.773 14.7927H18.4559C18.2291 14.7927 18.0088 14.8747 17.8359 15.0217C17.6625 15.1718 17.5478 15.3768 17.5127 15.601L17.4887 15.7315L17.0872 18.2858L17.0691 18.3795C17.0642 18.4092 17.0559 18.424 17.0438 18.434C17.0329 18.4431 17.0173 18.4493 17.0021 18.4493H15.0438Z" fill="#28356A"/>
<path fill-rule="evenodd" clip-rule="evenodd" d="M21.9014 9.07422C21.8893 9.1523 21.8753 9.23209 21.8598 9.31409C21.3223 12.0847 19.4835 13.0419 17.1352 13.0419H15.9395C15.6522 13.0419 15.4102 13.2512 15.3655 13.5357L14.5799 18.5389C14.5508 18.7258 14.6942 18.894 14.8819 18.894H17.0026C17.2537 18.894 17.4671 18.7109 17.5066 18.4622L17.5274 18.354L17.9267 15.8098L17.9524 15.6703C17.9915 15.4208 18.2053 15.2375 18.4564 15.2375H18.7735C20.8282 15.2375 22.4367 14.3999 22.9069 11.9761C23.1032 10.9636 23.0016 10.1181 22.4819 9.52353C22.3247 9.34427 22.1296 9.19544 21.9014 9.07422Z" fill="#298FC2"/>
<path fill-rule="evenodd" clip-rule="evenodd" d="M21.3387 8.84993C21.2566 8.82586 21.1719 8.80411 21.085 8.78443C20.9976 8.76525 20.9081 8.74826 20.816 8.73335C20.4936 8.68106 20.1403 8.65625 19.7619 8.65625H16.5676C16.4889 8.65625 16.4142 8.67409 16.3474 8.70635C16.2 8.77747 16.0906 8.9175 16.064 9.08894L15.3845 13.4105L15.365 13.5365C15.4097 13.252 15.6517 13.0427 15.9389 13.0427H17.1347C19.483 13.0427 21.3218 12.085 21.8592 9.31488C21.8753 9.23289 21.8888 9.15309 21.9009 9.07501C21.7649 9.00255 21.6177 8.9406 21.4591 8.88781C21.4199 8.87473 21.3795 8.86215 21.3387 8.84993Z" fill="#22284F"/>
<path fill-rule="evenodd" clip-rule="evenodd" d="M16.0643 9.08911C16.0909 8.91767 16.2003 8.77764 16.3477 8.70701C16.415 8.67463 16.4892 8.65679 16.5679 8.65679H19.7622C20.1406 8.65679 20.4939 8.68171 20.8163 8.73401C20.9084 8.7488 20.9979 8.76591 21.0853 8.78509C21.1721 8.80464 21.2569 8.82651 21.339 8.85046C21.3798 8.86268 21.4202 8.87539 21.4597 8.88798C21.6183 8.94077 21.7657 9.00321 21.9016 9.07518C22.0615 8.05131 21.9003 7.35419 21.349 6.72293C20.7411 6.02789 19.6441 5.73047 18.2402 5.73047H14.1647C13.878 5.73047 13.6333 5.93979 13.589 6.22475L11.8916 17.0283C11.8581 17.2421 12.0223 17.4349 12.2369 17.4349H14.753L16.0643 9.08911Z" fill="#28356A"/>
</svg>
