<svg width="35" height="24" viewBox="0 0 35 24" fill="none" xmlns="http://www.w3.org/2000/svg">
<rect x="0.5" y="0.5" width="34" height="23" rx="3.5" fill="white" stroke="#D9D9D9"/>
<path fill-rule="evenodd" clip-rule="evenodd" d="M11.1253 15.7582H9.00494L7.41496 9.69235C7.33949 9.41332 7.17925 9.16665 6.94354 9.05038C6.35531 8.75821 5.70712 8.52569 5 8.40841V8.17488H8.41567C8.88709 8.17488 9.24065 8.52569 9.29957 8.93311L10.1245 13.3086L12.2438 8.17488H14.3052L11.1253 15.7582ZM15.4838 15.7582H13.4813L15.1302 8.17488H17.1327L15.4838 15.7582ZM19.7234 10.2757C19.7823 9.86728 20.1358 9.63374 20.5483 9.63374C21.1965 9.57511 21.9026 9.69238 22.4919 9.98354L22.8454 8.35081C22.2562 8.11727 21.608 8 21.0197 8C19.0762 8 17.662 9.05041 17.662 10.5082C17.662 11.6173 18.6637 12.1996 19.3708 12.5504C20.1358 12.9002 20.4305 13.1338 20.3716 13.4836C20.3716 14.0083 19.7823 14.2418 19.1941 14.2418C18.4869 14.2418 17.7798 14.0669 17.1327 13.7747L16.7791 15.4085C17.4862 15.6996 18.2512 15.8169 18.9584 15.8169C21.1376 15.8745 22.4919 14.8251 22.4919 13.25C22.4919 11.2665 19.7234 11.1502 19.7234 10.2757ZM29.5 15.7582L27.91 8.17488H26.2022C25.8486 8.17488 25.4951 8.40841 25.3772 8.75821L22.4329 15.7582H24.4943L24.9058 14.6502H27.4386L27.6743 15.7582H29.5ZM26.4968 10.2171L27.085 13.0751H25.4361L26.4968 10.2171Z" fill="#172B85"/>
</svg>
