<svg width="48" height="48" viewBox="0 0 48 48" fill="none" xmlns="http://www.w3.org/2000/svg">
<path d="M0 24C0 10.7452 10.7452 0 24 0C37.2548 0 48 10.7452 48 24C48 37.2548 37.2548 48 24 48C10.7452 48 0 37.2548 0 24Z" fill="#FEE2E2"/>
<path d="M25.397 32.9972V24.8012H28.162L28.573 21.5922H25.397V19.5482C25.397 18.6222 25.655 17.9882 26.984 17.9882H28.668V15.1272C27.8487 15.0394 27.0251 14.997 26.201 15.0002C23.757 15.0002 22.079 16.4922 22.079 19.2312V21.5862H19.332V24.7952H22.085V32.9972H25.397Z" fill="#111827"/>
</svg>
