<svg width="48" height="48" viewBox="0 0 48 48" fill="none" xmlns="http://www.w3.org/2000/svg">
<path d="M0 24C0 10.7452 10.7452 0 24 0C37.2548 0 48 10.7452 48 24C48 37.2548 37.2548 48 24 48C10.7452 48 0 37.2548 0 24Z" fill="#FEE2E2"/>
<path d="M31.545 27.0262V24.6052H33.967V22.7902H31.545V20.3692H29.73V22.7902H27.309V24.6052H29.73V27.0262H31.545ZM20.052 20.3032C21.185 20.3032 21.948 20.7872 22.382 21.1992L24.104 19.5292C23.056 18.5492 21.689 17.9492 20.052 17.9492C16.714 17.9482 14 20.6602 14 24.0012C14 27.3422 16.714 30.0542 20.052 30.0542C23.545 30.0542 25.864 27.5972 25.864 24.1412C25.864 23.6382 25.8 23.2812 25.711 22.9012H20.049V25.1572H23.381C23.223 26.1082 22.37 27.7132 20.052 27.7132C18.049 27.7132 16.415 26.0482 16.415 24.0092C16.415 21.9672 18.049 20.3032 20.052 20.3032Z" fill="#111827"/>
</svg>
