<svg width="48" height="48" viewBox="0 0 48 48" fill="none" xmlns="http://www.w3.org/2000/svg">
<path d="M0 24C0 10.7452 10.7452 0 24 0C37.2548 0 48 10.7452 48 24C48 37.2548 37.2548 48 24 48C10.7452 48 0 37.2548 0 24Z" fill="#FEE2E2"/>
<path d="M27.0375 24C27.0375 22.3125 25.6875 20.9625 24 20.9625C22.3125 20.9625 20.9625 22.3125 20.9625 24C20.9625 25.6875 22.3125 27.0375 24 27.0375C25.6875 27.0375 27.0375 25.6875 27.0375 24ZM28.6125 24C28.6125 26.5875 26.5875 28.6125 24 28.6125C21.4125 28.6125 19.3875 26.5875 19.3875 24C19.3875 21.4125 21.4125 19.3875 24 19.3875C26.5875 19.3875 28.6125 21.4125 28.6125 24ZM29.85 19.1625C29.85 19.8375 29.4 20.2875 28.725 20.2875C28.05 20.2875 27.6 19.8375 27.6 19.1625C27.6 18.4875 28.05 18.0375 28.725 18.0375C29.4 18.0375 29.85 18.6 29.85 19.1625ZM24 16.575C22.65 16.575 19.8375 16.4625 18.7125 16.9125C17.925 17.25 17.25 17.925 17.025 18.7125C16.575 19.8375 16.6875 22.65 16.6875 24C16.6875 25.35 16.575 28.1625 17.025 29.2875C17.25 30.075 17.925 30.75 18.7125 30.975C19.8375 31.425 22.7625 31.3125 24 31.3125C25.2375 31.3125 28.1625 31.425 29.2875 30.975C30.075 30.6375 30.6375 30.075 30.975 29.2875C31.425 28.05 31.3125 25.2375 31.3125 24C31.3125 22.7625 31.425 19.8375 30.975 18.7125C30.75 17.925 30.075 17.25 29.2875 17.025C28.1625 16.4625 25.35 16.575 24 16.575ZM33 24V27.7125C33 29.0625 32.55 30.4125 31.5375 31.5375C30.525 32.55 29.175 33 27.7125 33H20.2875C18.9375 33 17.5875 32.55 16.4625 31.5375C15.5625 30.525 15 29.175 15 27.7125V24V20.2875C15 18.825 15.5625 17.475 16.4625 16.4625C17.5875 15.5625 18.9375 15 20.2875 15H27.7125C29.0625 15 30.4125 15.45 31.5375 16.4625C32.4375 17.475 33 18.825 33 20.2875V24Z" fill="#111827"/>
</svg>
