<svg width="160" height="160" viewBox="0 0 160 160" fill="none" xmlns="http://www.w3.org/2000/svg">
<rect width="160" height="160" rx="80" fill="#FEE2E2"/>
<mask id="mask0" mask-type="alpha" maskUnits="userSpaceOnUse" x="40" y="40" width="80" height="80">
<rect x="40" y="40" width="80" height="80" fill="white"/>
</mask>
<g mask="url(#mask0)">
<path d="M107.692 52.7532C94.9189 52.7532 81.6814 40.7281 81.5503 40.6076C80.6705 39.7975 79.3294 39.7975 78.4497 40.6076C78.3178 40.729 65.1151 52.7532 52.3077 52.7532C51.0332 52.7532 50 53.8026 50 55.097V83.1654C50 105.904 66.6517 114.989 79.1769 119.846C79.442 119.949 79.7209 120 80 120C80.2791 120 80.558 119.949 80.8231 119.846C98.3852 113.037 110 102.415 110 83.1654V55.097C110 53.8026 108.967 52.7532 107.692 52.7532Z" fill="#F87171"/>
<path d="M80 62C70.0748 62 62 70.0748 62 80C62 89.9252 70.0748 98 80 98C89.9252 98 98 89.9252 98 80C98 70.0748 89.9252 62 80 62ZM86.961 79.2467L79.2467 86.961C78.7448 87.4631 78.0867 87.7143 77.4286 87.7143C76.7705 87.7143 76.1123 87.4633 75.6104 86.961L73.039 84.3896C72.0347 83.3854 72.0347 81.7573 73.039 80.7531C74.043 79.7489 75.6713 79.7489 76.6755 80.7531L77.4287 81.5062L83.3249 75.6102C84.3289 74.606 85.9571 74.606 86.9614 75.6102C87.9654 76.6145 87.9654 78.2425 86.961 79.2467Z" fill="#111827"/>
<path d="M86.9604 79.2471L79.2461 86.9614C78.7442 87.4635 78.086 87.7147 77.4279 87.7147C76.7698 87.7147 76.1117 87.4637 75.6098 86.9614L73.0383 84.39C72.0341 83.3857 72.0341 81.7577 73.0383 80.7535C74.0424 79.7492 75.6706 79.7492 76.6748 80.7535L77.4281 81.5065L83.3242 75.6106C84.3283 74.6064 85.9565 74.6064 86.9607 75.6106C87.9648 76.6148 87.9648 78.2429 86.9604 79.2471Z" fill="#FFF9F9"/>
</g>
</svg>
