<svg width="48" height="48" viewBox="0 0 48 48" fill="none" xmlns="http://www.w3.org/2000/svg">
<path d="M0 24C0 10.7452 10.7452 0 24 0C37.2548 0 48 10.7452 48 24C48 37.2548 37.2548 48 24 48C10.7452 48 0 37.2548 0 24Z" fill="#FEE2E2"/>
<path d="M31.633 19.9975C31.646 20.1725 31.646 20.3465 31.646 20.5205C31.646 25.8455 27.593 31.9815 20.186 31.9815C17.904 31.9815 15.784 31.3205 14 30.1725C14.324 30.2095 14.636 30.2225 14.973 30.2225C16.786 30.2269 18.5476 29.6207 19.974 28.5015C19.1334 28.4863 18.3186 28.209 17.6432 27.7083C16.9679 27.2075 16.4658 26.5084 16.207 25.7085C16.456 25.7455 16.706 25.7705 16.968 25.7705C17.329 25.7705 17.692 25.7205 18.029 25.6335C17.1168 25.4493 16.2965 24.9549 15.7076 24.2342C15.1188 23.5136 14.7977 22.6112 14.799 21.6805V21.6305C15.336 21.9295 15.959 22.1165 16.619 22.1415C16.0661 21.7741 15.6127 21.2756 15.2993 20.6903C14.986 20.1051 14.8223 19.4514 14.823 18.7875C14.823 18.0395 15.022 17.3535 15.371 16.7555C16.3831 18.0006 17.6455 19.0191 19.0763 19.7452C20.5072 20.4713 22.0746 20.8887 23.677 20.9705C23.615 20.6705 23.577 20.3595 23.577 20.0475C23.5767 19.5185 23.6807 18.9946 23.8831 18.5058C24.0854 18.017 24.3821 17.5728 24.7562 17.1987C25.1303 16.8246 25.5744 16.5279 26.0632 16.3256C26.5521 16.1233 27.076 16.0193 27.605 16.0195C28.765 16.0195 29.812 16.5055 30.548 17.2915C31.4498 17.1171 32.3145 16.788 33.104 16.3185C32.8034 17.2493 32.1738 18.0386 31.333 18.5385C32.1328 18.4473 32.9144 18.237 33.652 17.9145C33.1011 18.7176 32.4185 19.4219 31.633 19.9975Z" fill="#111827"/>
</svg>
