<svg width="160" height="160" viewBox="0 0 160 160" fill="none" xmlns="http://www.w3.org/2000/svg">
<rect width="160" height="160" rx="80" fill="#FEE2E2"/>
<mask id="mask0" mask-type="alpha" maskUnits="userSpaceOnUse" x="40" y="40" width="80" height="80">
<rect x="40" y="40" width="80" height="80" fill="white"/>
</mask>
<g mask="url(#mask0)">
<path d="M112 54.5L80 88.5L91.5 54.5H112Z" fill="#111827"/>
<path d="M68.5 54.5L80 88.5L91.5 54.5H68.5Z" fill="#F87171"/>
<path d="M48 54.5L80 88.5L68.5 54.5H48Z" fill="#111827"/>
<path d="M102 43L91.5 54.5H112L102 43Z" fill="#F87171"/>
<path d="M80 43L68.5 54.5H91.5L80 43Z" fill="#111827"/>
<path d="M58.5 43L48 54.5H68.5L58.5 43Z" fill="#F87171"/>
<path d="M91.5 54.5L80 43H102L91.5 54.5Z" fill="#FFF9F9"/>
<path d="M58.5 43L68.5 54.5L80 43H58.5Z" fill="#FFF9F9"/>
<path d="M86.5 96.0004C79.1542 91.7156 65.5 93.6671 59 96.0004V114.5H90L109.5 108.5C113.9 103.3 109.667 102 107 102L90 104C90 104 92.5 99.5003 86.5 96.0004Z" fill="#F87171"/>
<path d="M90 104C90 104 92.5 99.5003 86.5 96.0004C79.1542 91.7156 65.5 93.6671 59 96.0004V114.5H90L109.5 108.5C113.9 103.3 109.667 102 107 102L90 104ZM90 104H75" stroke="#111827" stroke-width="3" stroke-linecap="round" stroke-linejoin="round"/>
<path d="M47 116H59V112.5V94H47V116Z" fill="#111827" stroke="#111827" stroke-width="4" stroke-linecap="round" stroke-linejoin="round"/>
</g>
</svg>
